<svg width="70" height="51" viewBox="0 0 70 51" fill="none" xmlns="http://www.w3.org/2000/svg">
<path d="M11.38 31.848H2.42V26.344H11.38V17.448H16.82V26.344H25.78V31.848H16.82V40.808H11.38V31.848ZM34.7275 43.24C33.8315 28.2213 32.1248 14.8667 29.6075 3.176L35.2395 0.231998L35.8795 0.679996C38.3968 13.736 39.6555 26.5787 39.6555 39.208V41.832L34.7275 43.24ZM48.665 43.24C47.769 28.2213 46.0623 14.8667 43.545 3.176L49.177 0.231998L49.817 0.679996C50.585 4.136 51.1823 7.03733 51.609 9.384C51.865 10.4933 52.2917 11.2187 52.889 11.56C53.4863 11.8587 54.5743 12.008 56.153 12.008C57.9877 12.008 59.3103 11.6453 60.121 10.92C60.9743 10.152 61.5503 8.78666 61.849 6.824L62.873 0.487999L63.321 0.0399971L68.057 1.192L67.097 7.912C66.4997 11.88 65.3903 14.8667 63.769 16.872C62.1903 18.8347 59.7157 19.816 56.345 19.816C55.065 19.816 53.8277 19.5813 52.633 19.112C53.273 27.688 53.593 34.472 53.593 39.464V41.832L48.665 43.24Z" fill="#E6A11B"/>
</svg>
