<svg width="53" height="44" viewBox="0 0 53 44" fill="none" xmlns="http://www.w3.org/2000/svg">
<path d="M9.3175 31.848H0.3575V26.344H9.3175V17.448H14.7575V26.344H23.7175V31.848H14.7575V40.808H9.3175V31.848ZM32.665 43.24C31.769 28.2213 30.0623 14.8667 27.545 3.176L33.177 0.231998L33.817 0.679996C34.585 4.136 35.1823 7.03733 35.609 9.384C35.865 10.4933 36.2917 11.2187 36.889 11.56C37.4863 11.8587 38.5743 12.008 40.153 12.008C41.9877 12.008 43.3103 11.6453 44.121 10.92C44.9743 10.152 45.5503 8.78666 45.849 6.824L46.873 0.487999L47.321 0.0399971L52.057 1.192L51.097 7.912C50.4997 11.88 49.3903 14.8667 47.769 16.872C46.1903 18.8347 43.7157 19.816 40.345 19.816C39.065 19.816 37.8277 19.5813 36.633 19.112C37.273 27.688 37.593 34.472 37.593 39.464V41.832L32.665 43.24Z" fill="#E6A11B"/>
</svg>
