<svg width="65" height="44" viewBox="0 0 65 44" fill="none" xmlns="http://www.w3.org/2000/svg">
<path d="M9.255 31.848H0.295V26.344H9.255V17.448H14.695V26.344H23.655V31.848H14.695V40.808H9.255V31.848ZM33.7545 0.679996C34.5225 4.136 35.1198 7.03733 35.5465 9.384C35.8025 10.4933 36.2078 11.2187 36.7625 11.56C37.3598 11.8587 38.4478 12.008 40.0265 12.008C41.6905 12.008 42.8425 11.6667 43.4825 10.984C44.1225 10.2587 44.6132 8.872 44.9545 6.824L45.6585 2.472L46.1065 2.088L50.8425 3.24L50.2025 7.592C50.1598 8.18933 50.0532 8.936 49.8825 9.832C50.1812 10.6 50.6292 11.1547 51.2265 11.496C51.8238 11.8373 52.6558 12.008 53.7225 12.008C55.0025 12.008 56.0052 11.688 56.7305 11.048C57.4558 10.3653 57.9252 9.10667 58.1385 7.272L58.9065 0.487999L59.4185 0.0399971L64.0905 1.192L63.3225 8.36C62.9385 12.1147 61.9785 14.9733 60.4425 16.936C58.9492 18.856 56.7732 19.816 53.9145 19.816C52.3785 19.816 50.9918 19.5813 49.7545 19.112C48.5598 18.6 47.6425 17.9387 47.0025 17.128C45.4665 18.92 43.2052 19.816 40.2185 19.816C39.4505 19.816 38.7892 19.7733 38.2345 19.688C37.7225 19.56 37.1678 19.368 36.5705 19.112C37.2105 27.688 37.5305 34.472 37.5305 39.464V41.832L32.6025 43.24C31.7065 28.2213 29.9998 14.8667 27.4825 3.176L33.1145 0.231998L33.7545 0.679996Z" fill="#E6A11B"/>
</svg>
