<svg width="88" height="88" viewBox="0 0 88 88" fill="none" xmlns="http://www.w3.org/2000/svg">
<path d="M62.3333 25.6667H69.6667C73.7183 25.6667 77 28.9484 77 33.0001V69.6667C77 73.7184 73.7183 77.0001 69.6667 77.0001H18.3333C14.2817 77.0001 11 73.7184 11 69.6667V33.0001C11 28.9484 14.2817 25.6667 18.3333 25.6667H25.6667" stroke="#1B60E6" stroke-width="4" stroke-linecap="round" stroke-linejoin="round"/>
<path fill-rule="evenodd" clip-rule="evenodd" d="M29.6418 35.8124L29.1138 31.834L26.6754 28.6404C25.3334 26.884 25.3334 24.4457 26.6754 22.6894L29.1138 19.4994L29.6454 15.5137C29.9388 13.321 31.6621 11.5977 33.8548 11.3044L37.8331 10.7764L41.0268 8.33804C42.7831 6.99604 45.2214 6.99604 46.9778 8.33804L50.1678 10.7764L54.1534 11.308C56.3461 11.6014 58.0694 13.3247 58.3628 15.5174L58.8908 19.4957L61.3291 22.6894C62.6711 24.4457 62.6711 26.884 61.3291 28.6404L58.8908 31.8304L58.3591 35.816C58.0658 38.0087 56.3424 39.732 54.1498 40.0254L50.1714 40.5534L46.9778 42.9917C45.2214 44.3337 42.7831 44.3337 41.0268 42.9917L37.8368 40.5534L33.8511 40.0217C31.6584 39.732 29.9351 38.005 29.6418 35.8124Z" stroke="#1B60E6" stroke-width="4" stroke-linecap="round" stroke-linejoin="round"/>
<path d="M49.7048 22.8141L42.5732 29.9458L38.2979 25.6668" stroke="#1B60E6" stroke-width="4" stroke-linecap="round" stroke-linejoin="round"/>
<path d="M25.667 55.0001H62.3337" stroke="#1B60E6" stroke-width="4" stroke-linecap="round" stroke-linejoin="round"/>
<path d="M33 66.0001H55" stroke="#1B60E6" stroke-width="4" stroke-linecap="round" stroke-linejoin="round"/>
</svg>
