<svg width="88" height="88" viewBox="0 0 88 88" fill="none" xmlns="http://www.w3.org/2000/svg">
<path d="M68.5806 67.0854C70.8503 69.3551 70.8503 73.0328 68.5806 75.2988C66.311 77.5684 62.6333 77.5684 60.3673 75.2988C58.0976 73.0291 58.0976 69.3514 60.3673 67.0854C62.637 64.8158 66.3146 64.8158 68.5806 67.0854Z" stroke="#1B60E6" stroke-width="4" stroke-linecap="round" stroke-linejoin="round"/>
<path d="M28.2472 67.0854C30.5169 69.3551 30.5169 73.0327 28.2472 75.2987C25.9775 77.5684 22.2999 77.5684 20.0339 75.2987C17.7679 73.0291 17.7642 69.3514 20.0339 67.0854C22.3035 64.8194 25.9775 64.8157 28.2472 67.0854Z" stroke="#1B60E6" stroke-width="4" stroke-linecap="round" stroke-linejoin="round"/>
<path d="M36.6663 14.6667H51.333C53.357 14.6667 54.9997 16.3094 54.9997 18.3334V55.0001H7.33301" stroke="#1B60E6" stroke-width="4" stroke-linecap="round" stroke-linejoin="round"/>
<path d="M18.333 71.1922H10.9997C8.97567 71.1922 7.33301 69.5494 7.33301 67.5254V47.6667" stroke="#1B60E6" stroke-width="4" stroke-linecap="round" stroke-linejoin="round"/>
<path d="M55 25.6667H70.851C72.3507 25.6667 73.7 26.5797 74.2537 27.9731L80.1423 42.6911C80.487 43.5564 80.6667 44.4804 80.6667 45.4117V67.2211C80.6667 69.2451 79.024 70.8877 77 70.8877H70.2863" stroke="#1B60E6" stroke-width="4" stroke-linecap="round" stroke-linejoin="round"/>
<path d="M58.6661 71.2067H29.9561" stroke="#1B60E6" stroke-width="4" stroke-linecap="round" stroke-linejoin="round"/>
<path d="M80.6667 51.3335H66V36.6667H77.7333" stroke="#1B60E6" stroke-width="4" stroke-linecap="round" stroke-linejoin="round"/>
<path d="M7.33301 14.6667H25.6663" stroke="#1B60E6" stroke-width="4" stroke-linecap="round" stroke-linejoin="round"/>
<path d="M7.33301 25.6667H18.333" stroke="#1B60E6" stroke-width="4" stroke-linecap="round" stroke-linejoin="round"/>
<path d="M10.9997 36.6667H7.33301" stroke="#1B60E6" stroke-width="4" stroke-linecap="round" stroke-linejoin="round"/>
</svg>
