<svg width="88" height="88" viewBox="0 0 88 88" fill="none" xmlns="http://www.w3.org/2000/svg">
<path fill-rule="evenodd" clip-rule="evenodd" d="M53.1699 75.1796V73.6904C53.182 69.4532 56.6139 66.0212 60.8511 66.0092H73.0002C77.2374 66.0212 80.6693 69.4532 80.6814 73.6904V75.1796C80.6814 76.1926 79.8602 77.0137 78.8473 77.0137H55.004C53.9911 77.0137 53.1699 76.1926 53.1699 75.1796Z" stroke="#1B60E6" stroke-width="4" stroke-linecap="round" stroke-linejoin="round"/>
<path fill-rule="evenodd" clip-rule="evenodd" d="M59.8644 51.4831C58.9751 48.2964 60.3288 44.9088 63.1693 43.2125C66.0098 41.5162 69.6343 41.931 72.0181 44.2252C74.4019 46.5194 74.9552 50.1253 73.369 53.0287C71.7827 55.9321 68.4494 57.4145 65.231 56.648C62.6362 56.0299 60.5813 54.0523 59.8644 51.4831Z" stroke="#1B60E6" stroke-width="4" stroke-linecap="round" stroke-linejoin="round"/>
<path fill-rule="evenodd" clip-rule="evenodd" d="M7.31738 67.8433V66.3541C7.32947 62.1169 10.7614 58.6849 14.9986 58.6729H27.1476C31.3848 58.6849 34.8168 62.1169 34.8288 66.3541V67.8433C34.8288 68.8563 34.0077 69.6773 32.9947 69.6773H9.15148C8.13854 69.6773 7.31738 68.8563 7.31738 67.8433Z" stroke="#1B60E6" stroke-width="4" stroke-linecap="round" stroke-linejoin="round"/>
<path fill-rule="evenodd" clip-rule="evenodd" d="M14.0118 44.1467C13.1226 40.96 14.4763 37.5724 17.3168 35.8761C20.1573 34.1798 23.7817 34.5946 26.1656 36.8888C28.5494 39.183 29.1027 42.7888 27.5164 45.6922C25.9302 48.5956 22.5969 50.0781 19.3784 49.3115C16.7837 48.6935 14.7288 46.7159 14.0118 44.1467Z" stroke="#1B60E6" stroke-width="4" stroke-linecap="round" stroke-linejoin="round"/>
<path d="M47.6679 36.6637C55.7715 36.6637 62.3407 30.0945 62.3407 21.9909C62.3407 13.8874 55.7715 7.31812 47.6679 7.31812C39.5644 7.31812 32.9951 13.8874 32.9951 21.9909C32.9951 30.0945 39.5644 36.6637 47.6679 36.6637Z" stroke="#1B60E6" stroke-width="4" stroke-linecap="round" stroke-linejoin="round"/>
<path d="M52.6018 19.0857L46.4393 25.2446L42.7344 21.5507" stroke="#1B60E6" stroke-width="4" stroke-linecap="round" stroke-linejoin="round"/>
</svg>
