<svg width="88" height="88" viewBox="0 0 88 88" fill="none" xmlns="http://www.w3.org/2000/svg">
<path d="M62.3408 7.31812C72.4703 7.31812 80.6818 15.5296 80.6818 25.6591" stroke="#1B60E6" stroke-width="4" stroke-linecap="round" stroke-linejoin="round"/>
<path d="M62.3408 18.3226C66.3926 18.3226 69.6772 21.6072 69.6772 25.659" stroke="#1B60E6" stroke-width="4" stroke-linecap="round" stroke-linejoin="round"/>
<path d="M47.6683 10.9863H29.3273C19.1979 10.9863 10.9863 19.1979 10.9863 29.3273V58.6729C10.9863 68.8023 19.1979 77.0138 29.3273 77.0138H58.6729C68.8023 77.0138 77.0138 68.8023 77.0138 58.6729V40.3319" stroke="#1B60E6" stroke-width="4" stroke-linecap="round" stroke-linejoin="round"/>
<path d="M35.7036 43.879H27.0303C26.3399 43.879 25.7803 44.4387 25.7803 45.129V57.3018C25.7803 57.9922 26.3399 58.5518 27.0303 58.5518H35.7036C36.3939 58.5518 36.9536 57.9922 36.9536 57.3018V45.129C36.9536 44.4387 36.3939 43.879 35.7036 43.879Z" stroke="#1B60E6" stroke-width="4" stroke-linecap="round" stroke-linejoin="round"/>
<path d="M60.9731 43.879H52.2998C51.6094 43.879 51.0498 44.4387 51.0498 45.129V57.3018C51.0498 57.9922 51.6094 58.5518 52.2998 58.5518H60.9731C61.6635 58.5518 62.2231 57.9922 62.2231 57.3018V45.129C62.2231 44.4387 61.6635 43.879 60.9731 43.879Z" stroke="#1B60E6" stroke-width="4" stroke-linecap="round" stroke-linejoin="round"/>
<path d="M62.2201 48.4642V43.879C62.2201 33.8164 54.0628 25.6591 44.0002 25.6591C33.9376 25.6591 25.7803 33.8164 25.7803 43.879V48.4642" stroke="#1B60E6" stroke-width="4" stroke-linecap="round" stroke-linejoin="round"/>
</svg>
