<svg width="50" height="50" viewBox="0 0 50 50" fill="none" xmlns="http://www.w3.org/2000/svg">
<path d="M20.834 21.875H10.4173C9.26732 21.875 8.33398 20.9417 8.33398 19.7917L8.33398 11.4583C8.33398 10.3083 9.26732 9.375 10.4173 9.375H18.7507C19.9007 9.375 20.834 10.3083 20.834 11.4583V21.875C20.834 34.375 18.7507 36.4583 12.5007 40.625" stroke="white" stroke-width="2" stroke-linecap="round" stroke-linejoin="round"/>
<path d="M41.667 21.875H31.2503C30.1003 21.875 29.167 20.9417 29.167 19.7917L29.167 11.4583C29.167 10.3083 30.1003 9.375 31.2503 9.375H39.5837C40.7337 9.375 41.667 10.3083 41.667 11.4583L41.667 21.875ZM41.667 21.875C41.667 34.375 39.5837 36.4583 33.3337 40.625" stroke="white" stroke-width="2" stroke-linecap="round" stroke-linejoin="round"/>
</svg>
