<?xml version="1.0" standalone="no"?>
<!DOCTYPE svg PUBLIC "-//W3C//DTD SVG 20010904//EN"
 "http://www.w3.org/TR/2001/REC-SVG-20010904/DTD/svg10.dtd">
<svg version="1.0" xmlns="http://www.w3.org/2000/svg"
 width="84.000000pt" height="80.000000pt" viewBox="0 0 84.000000 80.000000"
 preserveAspectRatio="xMidYMid meet">

<g transform="translate(0.000000,80.000000) scale(0.100000,-0.100000)"
fill="#000000" stroke="none">
<path d="M17 782 c-15 -17 -17 -58 -17 -384 0 -341 1 -366 18 -381 17 -15 59
-17 404 -17 360 0 386 1 401 18 15 17 17 58 17 384 0 341 -1 366 -18 381 -17
15 -59 17 -404 17 -360 0 -386 -1 -401 -18z m681 -379 l-3 -278 -275 0 -275 0
-3 278 -2 277 280 0 280 0 -2 -277z"/>
<path d="M190 400 l0 -240 235 0 235 0 0 240 0 240 -235 0 -235 0 0 -240z
m440 0 l0 -210 -207 2 -208 3 -3 195 c-1 107 0 200 2 207 4 10 53 13 211 13
l205 0 0 -210z"/>
<path d="M248 584 c-5 -4 -8 -88 -8 -186 l0 -178 30 0 30 0 0 60 c0 51 3 60
18 60 29 0 42 -21 42 -71 0 -42 3 -47 25 -51 33 -7 35 -3 35 54 0 56 -21 104
-50 113 -11 3 -20 10 -20 15 0 5 9 12 20 15 23 7 50 53 50 84 0 12 -13 35 -28
52 -24 27 -37 33 -83 37 -30 2 -57 0 -61 -4z m98 -68 c15 -12 17 -18 8 -33 -6
-10 -21 -19 -33 -21 -18 -3 -21 1 -21 32 0 39 13 46 46 22z"/>
<path d="M500 530 c0 -13 -7 -20 -20 -20 -11 0 -20 -7 -20 -15 0 -8 9 -15 20
-15 13 0 20 -7 20 -20 0 -11 7 -20 15 -20 8 0 15 9 15 20 0 13 7 20 20 20 11
0 20 7 20 15 0 8 -9 15 -20 15 -13 0 -20 7 -20 20 0 11 -7 20 -15 20 -8 0 -15
-9 -15 -20z"/>
<path d="M440 304 c0 -84 2 -95 16 -90 9 3 22 6 30 6 10 0 14 15 14 60 0 51 3
60 18 60 30 0 42 -21 42 -72 0 -47 1 -48 30 -48 29 0 30 1 30 49 0 27 -4 61
-10 75 -13 34 -59 56 -120 56 l-50 0 0 -96z"/>
</g>
</svg>
