<svg width="30" height="30" viewBox="0 0 30 30" fill="none" xmlns="http://www.w3.org/2000/svg">
<path fill-rule="evenodd" clip-rule="evenodd" d="M13.0929 16.9066C11.1429 14.9566 9.6729 12.7733 8.6963 10.5583C8.4896 10.0899 8.6113 9.5416 8.9729 9.1799L10.3379 7.8166C11.4563 6.6983 11.4563 5.1166 10.4796 4.13995L8.5229 2.18328C7.2213 0.881614 5.1113 0.881614 3.80959 2.18328L2.72293 3.26995C1.48793 4.50495 0.972927 6.2866 1.30626 8.0533C2.12959 12.4083 4.65959 17.1766 8.7413 21.2583C12.8229 25.3399 17.5913 27.8699 21.9463 28.6933C23.7129 29.0266 25.4946 28.5116 26.7296 27.2766L27.8146 26.1916C29.1163 24.8899 29.1163 22.7799 27.8146 21.4783L25.8596 19.5233C24.8829 18.5466 23.2996 18.5466 22.3246 19.5233L20.8196 21.0299C20.4579 21.3916 19.9096 21.5133 19.4413 21.3066C17.2263 20.3283 15.0429 18.8566 13.0929 16.9066Z" stroke="white" stroke-width="1.5" stroke-linecap="round" stroke-linejoin="round"/>
</svg>
