<svg width="32" height="32" viewBox="0 0 32 32" fill="none" xmlns="http://www.w3.org/2000/svg">
<path d="M9.33301 4H7.99967C6.52634 4 5.33301 5.19333 5.33301 6.66667V25.3333C5.33301 26.8067 6.52634 28 7.99967 28H23.9997C25.473 28 26.6663 26.8067 26.6663 25.3333V10.4373C26.6663 9.73067 26.385 9.052 25.885 8.552L22.1143 4.78133C21.6143 4.28133 20.9357 4 20.229 4H14.6663" stroke="white" stroke-width="1.5" stroke-linecap="round" stroke-linejoin="round"/>
<path d="M26.6667 10.6667H21.3333C20.5973 10.6667 20 10.0693 20 9.33333V4" stroke="white" stroke-width="1.5" stroke-linecap="round" stroke-linejoin="round"/>
<path fill-rule="evenodd" clip-rule="evenodd" d="M13.333 2.66675H10.6663C9.93034 2.66675 9.33301 3.26408 9.33301 4.00008V10.6667L11.9997 9.33341L14.6663 10.6667V4.00008C14.6663 3.26408 14.069 2.66675 13.333 2.66675Z" stroke="white" stroke-width="1.5" stroke-linecap="round" stroke-linejoin="round"/>
<path d="M9.33301 16.0002H21.333" stroke="white" stroke-width="1.5" stroke-linecap="round" stroke-linejoin="round"/>
<path d="M9.33301 20.6667H21.333" stroke="white" stroke-width="1.5" stroke-linecap="round" stroke-linejoin="round"/>
</svg>
