<svg width="32" height="32" viewBox="0 0 32 32" fill="none" xmlns="http://www.w3.org/2000/svg">
<path d="M24 23.9999V19.3333C24 18.2293 24.896 17.3333 26 17.3333V17.3333C27.104 17.3333 28 18.2293 28 19.3333V25.3333C28 27.5426 26.2093 29.3333 24 29.3333V29.3333C21.7907 29.3333 20 27.5426 20 25.3333V21.3333" stroke="white" stroke-width="1.5" stroke-linecap="round" stroke-linejoin="round"/>
<path d="M14.6663 21.3334H9.33301" stroke="white" stroke-width="1.5" stroke-linecap="round" stroke-linejoin="round"/>
<path d="M18.6663 15.9999H9.33301" stroke="white" stroke-width="1.5" stroke-linecap="round" stroke-linejoin="round"/>
<path d="M18.6663 10.6667H9.33301" stroke="white" stroke-width="1.5" stroke-linecap="round" stroke-linejoin="round"/>
<path d="M24 12V6.66667C24 5.19333 22.8067 4 21.3333 4H6.66667C5.19333 4 4 5.19333 4 6.66667V25.3333C4 26.8067 5.19333 28 6.66667 28H14.6667" stroke="white" stroke-width="1.5" stroke-linecap="round" stroke-linejoin="round"/>
</svg>
