<svg width="34" height="34" viewBox="0 0 34 34" fill="none" xmlns="http://www.w3.org/2000/svg">
<path fill-rule="evenodd" clip-rule="evenodd" d="M29.0051 23.6696C29.0051 26.6163 26.6163 29.0051 23.6696 29.0051H10.3307C7.38393 29.0051 4.99512 26.6163 4.99512 23.6696V10.3307C4.99512 7.38393 7.38393 4.99512 10.3307 4.99512H23.6696C26.6163 4.99512 29.0051 7.38393 29.0051 10.3307V23.6696Z" stroke="white" stroke-width="1.5" stroke-linecap="round" stroke-linejoin="round"/>
<path d="M4.99512 18.3339L6.72272 16.6063C7.32583 16.0031 8.14384 15.6643 8.99678 15.6643C9.84972 15.6643 10.6677 16.0031 11.2708 16.6063L17.0001 22.3355" stroke="white" stroke-width="1.5" stroke-linecap="round" stroke-linejoin="round"/>
<path d="M10.334 29.005L18.731 20.608C19.987 19.352 22.0232 19.352 23.2791 20.608L28.5336 25.8624" stroke="white" stroke-width="1.5" stroke-linecap="round" stroke-linejoin="round"/>
</svg>
