<svg width="40" height="40" viewBox="0 0 40 40" fill="none" xmlns="http://www.w3.org/2000/svg">
<path d="M25.0812 25H29.2629C30.6979 25 31.9712 25.9183 32.4245 27.28L33.5362 30.6133C34.2562 32.7717 32.6496 35 30.3746 35H9.62455C7.34955 35 5.74288 32.7717 6.46288 30.6133L7.57455 27.28C8.02622 25.9183 9.30122 25 10.7362 25H14.9196" stroke="white" stroke-width="1.5" stroke-linecap="round" stroke-linejoin="round"/>
<path fill-rule="evenodd" clip-rule="evenodd" d="M20 30C20 30 10 22.0133 10 14.7217C10 9.35333 14.4767 5 20 5C25.5233 5 30 9.35333 30 14.7217C30 22.0133 20 30 20 30Z" stroke="white" stroke-width="1.5" stroke-linecap="round" stroke-linejoin="round"/>
<path d="M22.3574 12.6431C23.6591 13.9448 23.6591 16.0554 22.3574 17.3571C21.0556 18.6589 18.9451 18.6589 17.6433 17.3571C16.3416 16.0554 16.3416 13.9448 17.6433 12.6431C18.9451 11.3413 21.0556 11.3413 22.3574 12.6431Z" stroke="white" stroke-width="1.5" stroke-linecap="round" stroke-linejoin="round"/>
</svg>
