<svg width="40" height="40" viewBox="0 0 40 40" fill="none" xmlns="http://www.w3.org/2000/svg">
<path d="M16.667 30V36.6667H23.3337V30" stroke="white" stroke-width="1.5" stroke-linecap="round" stroke-linejoin="round"/>
<path d="M10 20.0001H11.6667" stroke="white" stroke-width="1.5" stroke-linecap="round" stroke-linejoin="round"/>
<path fill-rule="evenodd" clip-rule="evenodd" d="M29.1667 13.3333H10.8333C7.61167 13.3333 5 15.9449 5 19.1666V28.3333C5 29.2533 5.74667 29.9999 6.66667 29.9999H33.3333C34.2533 29.9999 35 29.2533 35 28.3333V19.1666C35 15.9449 32.3883 13.3333 29.1667 13.3333Z" stroke="white" stroke-width="1.5" stroke-linecap="round" stroke-linejoin="round"/>
<path d="M23.333 8.33325V19.9999" stroke="white" stroke-width="1.5" stroke-linecap="round" stroke-linejoin="round"/>
<path d="M31.6663 3.33325H23.333V8.33325H31.6663V3.33325Z" stroke="white" stroke-width="1.5" stroke-linecap="round" stroke-linejoin="round"/>
<path d="M23.3314 19.3751C22.9864 19.3767 22.708 19.6567 22.708 20.0017C22.708 20.3467 22.988 20.6267 23.333 20.6251C23.678 20.6251 23.958 20.3451 23.958 20.0001C23.958 19.6551 23.678 19.3751 23.3314 19.3751Z" stroke="white" stroke-width="1.5" stroke-linecap="round" stroke-linejoin="round"/>
<path d="M10.833 13.3333C14.0547 13.3333 16.6663 15.9449 16.6663 19.1666V29.9999" stroke="white" stroke-width="1.5" stroke-linecap="round" stroke-linejoin="round"/>
</svg>
