<svg width="34" height="34" viewBox="0 0 34 34" fill="none" xmlns="http://www.w3.org/2000/svg">
<path d="M26.6711 4.99512H4.66113C4.10885 4.99512 3.66113 5.44283 3.66113 5.99512V7.99679C3.66113 8.54907 4.10885 8.99679 4.66113 8.99679H26.6711C27.2234 8.99679 27.6711 8.54907 27.6711 7.99679V5.99512C27.6711 5.44283 27.2234 4.99512 26.6711 4.99512Z" stroke="white" stroke-width="1.5" stroke-linecap="round" stroke-linejoin="round"/>
<path d="M17.0001 25.0035H7.66289C6.18952 25.0035 4.99512 23.8091 4.99512 22.3357V8.99683H26.3373" stroke="white" stroke-width="1.5" stroke-linecap="round" stroke-linejoin="round"/>
<path d="M10.3301 14.3322H16.9995" stroke="white" stroke-width="1.5" stroke-linecap="round" stroke-linejoin="round"/>
<path d="M10.3301 18.3339H12.9979" stroke="white" stroke-width="1.5" stroke-linecap="round" stroke-linejoin="round"/>
<path d="M24.87 16.3332C25.975 16.3332 26.8708 15.4374 26.8708 14.3324C26.8708 13.2273 25.975 12.3315 24.87 12.3315C23.7649 12.3315 22.8691 13.2273 22.8691 14.3324C22.8691 15.4374 23.7649 16.3332 24.87 16.3332Z" stroke="white" stroke-width="1.5" stroke-linecap="round" stroke-linejoin="round"/>
<path fill-rule="evenodd" clip-rule="evenodd" d="M23.9359 30.3389H26.0701C26.4301 30.3607 26.7821 30.2271 27.0372 29.9721C27.2922 29.7171 27.4257 29.365 27.404 29.005V25.9371L28.7379 24.3364C28.8858 24.0931 28.977 23.8195 29.0047 23.5361V21.0017C29.0264 20.6417 28.8929 20.2897 28.6378 20.0346C28.3828 19.7796 28.0308 19.6461 27.6708 19.6678H22.3352C21.9752 19.6461 21.6232 19.7796 21.3681 20.0346C21.1131 20.2897 20.9796 20.6417 21.0013 21.0017V23.5361C21.029 23.8195 21.1202 24.0931 21.2681 24.3364L22.602 25.9371V29.005C22.5802 29.365 22.7138 29.7171 22.9688 29.9721C23.2238 30.2271 23.5759 30.3607 23.9359 30.3389Z" stroke="white" stroke-width="1.5" stroke-linecap="round" stroke-linejoin="round"/>
</svg>
