<svg width="32" height="32" viewBox="0 0 32 32" fill="none" xmlns="http://www.w3.org/2000/svg">
<path d="M18.3573 14.6431C19.6591 15.9448 19.6591 18.0554 18.3573 19.3571C17.0556 20.6588 14.945 20.6588 13.6433 19.3571C12.3416 18.0554 12.3416 15.9448 13.6433 14.6431C14.9451 13.3413 17.0556 13.3413 18.3573 14.6431Z" stroke="white" stroke-width="1.5" stroke-linecap="round" stroke-linejoin="round"/>
<path d="M25.6718 6.64306C26.9735 7.94481 26.9735 10.0554 25.6718 11.3571C24.37 12.6588 22.2595 12.6588 20.9578 11.3571C19.656 10.0554 19.656 7.94481 20.9578 6.64306C22.2595 5.34131 24.37 5.34131 25.6718 6.64306Z" stroke="white" stroke-width="1.5" stroke-linecap="round" stroke-linejoin="round"/>
<path d="M24 16.3335C26.044 16.3335 28 17.0442 29.3333 18.1108" stroke="white" stroke-width="1.5" stroke-linecap="round" stroke-linejoin="round"/>
<path d="M11.0429 6.64306C12.3446 7.94481 12.3446 10.0554 11.0429 11.3571C9.74114 12.6588 7.6306 12.6588 6.32885 11.3571C5.0271 10.0554 5.0271 7.94481 6.32885 6.64306C7.6306 5.34131 9.74114 5.34131 11.0429 6.64306Z" stroke="white" stroke-width="1.5" stroke-linecap="round" stroke-linejoin="round"/>
<path d="M2.66699 18.1108C4.00033 17.0442 5.95633 16.3335 8.00033 16.3335" stroke="white" stroke-width="1.5" stroke-linecap="round" stroke-linejoin="round"/>
<path d="M22.1216 26.3335C20.5682 25.1322 18.3362 24.3335 16.0002 24.3335C13.6642 24.3335 11.4322 25.1322 9.87891 26.3335" stroke="white" stroke-width="1.5" stroke-linecap="round" stroke-linejoin="round"/>
</svg>
