<svg width="32" height="32" viewBox="0 0 32 32" fill="none" xmlns="http://www.w3.org/2000/svg">
<path d="M26.6667 13.3333V6.66667C26.6667 5.19333 25.4733 4 24 4H6.66667C5.19333 4 4 5.19333 4 6.66667V24" stroke="white" stroke-width="1.5" stroke-linecap="round" stroke-linejoin="round"/>
<path d="M9.33398 4V21.3333" stroke="white" stroke-width="1.5" stroke-linecap="round" stroke-linejoin="round"/>
<path d="M14.6667 21.3333H6.66667C5.19333 21.3333 4 22.5266 4 23.9999C4 25.4733 5.19333 26.6666 6.66667 26.6666H14.6667" stroke="white" stroke-width="1.5" stroke-linecap="round" stroke-linejoin="round"/>
<path fill-rule="evenodd" clip-rule="evenodd" d="M23.0577 27.6093L28.943 21.724C29.4643 21.2027 29.4643 20.3587 28.943 19.8387L26.8283 17.724C26.307 17.2027 25.463 17.2027 24.943 17.724L19.0577 23.6093C18.807 23.86 18.667 24.1987 18.667 24.552V28H22.115C22.4683 28 22.807 27.86 23.0577 27.6093Z" stroke="white" stroke-width="1.5" stroke-linecap="round" stroke-linejoin="round"/>
</svg>
